# Blender 3.6.2
# www.blender.org
mtllib lingo.mtl
o Cube.003
v -3.645287 -0.628498 -2.068151
v -3.645287 -0.191705 -1.631357
v -4.082080 -0.191705 -2.068151
v -3.645287 0.191705 -1.631357
v -4.082080 0.191705 -2.068151
v -3.645287 -0.628498 -3.931849
v -4.082080 -0.191705 -3.931849
v -3.645287 -0.191705 -4.368643
v -3.645287 0.191705 -4.368643
v -4.082080 0.191705 -3.931849
v 3.645287 -0.628498 -2.068151
v 4.082080 -0.191705 -2.068151
v 3.645287 -0.191705 -1.631357
v 3.645287 0.191705 -1.631357
v 4.082080 0.191705 -2.068151
v 3.645287 -0.628498 -3.931849
v 3.645287 -0.191705 -4.368643
v 4.082080 -0.191705 -3.931849
v 4.082080 0.191705 -3.931849
v 3.645287 0.191705 -4.368643
v -2.909993 0.876688 -2.803444
v -3.768255 0.382560 -1.945182
v -2.909993 0.876688 -3.196556
v -3.768255 0.382560 -4.054818
v 2.909993 0.876688 -2.803444
v 3.768255 0.382560 -1.945182
v 2.909993 0.876688 -3.196556
v 3.768255 0.382560 -4.054818
v -3.645287 -0.628498 0.931849
v -3.645287 -0.191705 1.368643
v -4.082080 -0.191705 0.931849
v -3.645287 0.191705 1.368643
v -4.082080 0.191705 0.931849
v -3.645287 -0.628498 -0.931849
v -4.082080 -0.191705 -0.931849
v -3.645287 -0.191705 -1.368643
v -3.645287 0.191705 -1.368643
v -4.082080 0.191705 -0.931849
v 3.645287 -0.628498 0.931849
v 4.082080 -0.191705 0.931849
v 3.645287 -0.191705 1.368643
v 3.645287 0.191705 1.368643
v 4.082080 0.191705 0.931849
v 3.645287 -0.628498 -0.931849
v 3.645287 -0.191705 -1.368643
v 4.082080 -0.191705 -0.931849
v 4.082080 0.191705 -0.931849
v 3.645287 0.191705 -1.368643
v -2.951200 0.876688 0.237762
v -3.768255 0.382560 1.054818
v -2.951200 0.876688 -0.237762
v -3.768255 0.382560 -1.054818
v 2.951200 0.876688 0.237762
v 3.768255 0.382560 1.054818
v 2.951200 0.876688 -0.237762
v 3.768255 0.382560 -1.054818
v -3.645287 -0.628498 6.931849
v -3.645287 -0.191705 7.368643
v -4.277225 0.370411 6.630054
v -3.645287 0.191705 7.368643
v -4.082080 0.191705 6.931849
v -3.645287 -0.628498 5.068151
v -4.082080 -0.191705 5.068151
v -3.645287 -0.191705 4.631357
v -3.645287 0.191705 4.631357
v -4.082080 0.191705 5.068151
v 3.645287 -0.628498 6.931849
v 4.082080 -0.191705 6.931849
v 3.645287 -0.191705 7.368643
v 3.645287 0.191705 7.368643
v 4.082080 0.191705 6.931849
v 3.645287 -0.628498 5.068151
v 3.645287 -0.191705 4.631357
v 4.082080 -0.191705 5.068151
v 4.082080 0.191705 5.068151
v 3.645287 0.191705 4.631357
v -2.954825 0.876688 6.241388
v -3.768255 0.382560 7.054818
v -2.954825 0.876688 5.758612
v -3.768255 0.382560 4.945182
v 2.954825 0.876688 6.241388
v 3.768255 0.382560 7.054818
v 2.954825 0.876688 5.758612
v 3.768255 0.382560 4.945182
v -3.645287 -0.628498 3.931849
v -3.645287 -0.191705 4.368643
v -4.082080 -0.191705 3.931849
v -3.645287 0.191705 4.368643
v -4.082080 0.191705 3.931849
v -3.645287 -0.628498 2.068151
v -4.082080 -0.191705 2.068151
v -3.645287 -0.191705 1.631357
v -3.645287 0.191705 1.631357
v -4.082080 0.191705 2.068151
v 3.645287 -0.628498 3.931849
v 4.082080 -0.191705 3.931849
v 3.645287 -0.191705 4.368643
v 3.645287 0.191705 4.368643
v 4.082080 0.191705 3.931849
v 3.645287 -0.628498 2.068151
v 3.645287 -0.191705 1.631357
v 4.082080 -0.191705 2.068151
v 4.082080 0.191705 2.068151
v 3.645287 0.191705 1.631357
v -2.905883 0.876688 3.192445
v -3.768255 0.382560 4.054818
v -2.905883 0.876688 2.807555
v -3.768255 0.382560 1.945182
v 2.905883 0.876688 3.192445
v 3.768255 0.382560 4.054818
v 2.905883 0.876688 2.807555
v 3.768255 0.382560 1.945182
v -3.384430 0.876688 6.670993
v -3.384430 0.876688 5.329007
v 3.384430 0.876688 5.329007
v 3.384430 0.876688 6.670993
v -3.384430 0.876688 6.670993
v -3.384430 0.876688 5.329007
v 3.384430 0.876688 5.329007
v 3.384430 0.876688 6.670993
v -3.384430 0.876688 6.670993
v -3.384430 0.876688 5.329007
v 3.384430 0.876688 5.329007
v 3.384430 0.876688 6.670993
v -3.384430 0.876688 6.670993
v -3.384430 0.876688 5.329007
v 3.384430 0.876688 5.329007
v 3.384430 0.876688 6.670993
v -3.384430 0.876688 3.670992
v -3.384430 0.876688 2.329008
v 3.384430 0.876688 2.329008
v 3.384430 0.876688 3.670992
v -3.384430 0.876688 0.670992
v -3.384430 0.876688 -0.670992
v 3.384430 0.876688 -0.670992
v 3.384430 0.876688 0.670992
v -3.384430 0.876688 -2.329008
v -3.384430 0.876688 -3.670992
v 3.384430 0.876688 -3.670992
v 3.384430 0.876688 -2.329008
v -2.954825 0.530793 6.241388
v -2.954825 0.530793 5.758612
v 2.954825 0.530793 6.241388
v 2.954825 0.530793 5.758612
v -2.905883 0.643783 3.192445
v -2.905883 0.643783 2.807555
v 2.905883 0.643783 3.192445
v 2.905883 0.643783 2.807555
v -2.951200 0.599093 0.237762
v -2.951200 0.599093 -0.237762
v 2.951200 0.599093 0.237762
v 2.951200 0.599093 -0.237762
v -2.909993 0.643475 -2.803444
v -2.909993 0.643475 -3.196556
v 2.909993 0.643475 -2.803444
v 2.909993 0.643475 -3.196556
vn -0.0000 -0.0000 1.0000
vn 1.0000 -0.0000 -0.0000
vn -0.5773 0.5774 -0.5774
vn -1.0000 -0.0000 -0.0000
vn -0.0000 -0.0000 -1.0000
vn -0.5774 -0.5774 0.5774
vn -0.5196 0.8544 -0.0000
vn -0.5774 -0.5774 -0.5774
vn -0.0000 0.8544 -0.5196
vn 0.5774 -0.5774 0.5774
vn 0.5773 0.5774 -0.5774
vn 0.5774 -0.5774 -0.5774
vn -0.7071 -0.7071 -0.0000
vn -0.7071 -0.0000 0.7071
vn -0.7071 -0.0000 -0.7071
vn -0.0000 -0.7071 -0.7071
vn 0.5196 0.8544 -0.0000
vn 0.7071 -0.0000 -0.7071
vn 0.7071 -0.7071 -0.0000
vn 0.5773 0.5774 0.5774
vn 0.7071 -0.0000 0.7071
vn -0.0000 -0.7071 0.7071
vn -0.5773 0.5774 0.5774
vn -0.0000 -1.0000 -0.0000
vn -0.7897 0.6134 -0.0000
vn -0.0000 0.6134 -0.7897
vn 0.7897 0.6134 -0.0000
vn -0.0000 0.6134 0.7897
vn -0.0000 0.8544 0.5196
vn 0.5774 0.5773 0.5774
vn -0.5774 0.5773 0.5774
vn -0.5774 0.5773 -0.5774
vn -0.5821 0.7965 -0.1639
vn -0.8242 -0.4004 0.4004
vn -0.5774 -0.5774 -0.5773
vn 0.5774 -0.5773 0.5774
vn 0.5774 0.5773 -0.5774
vn 0.5774 -0.5774 -0.5773
vn -0.8062 -0.5895 0.0508
vn -0.7686 -0.1746 0.6154
vn -0.0000 1.0000 -0.0000
vt 0.461872 0.763375
vt 0.538128 0.763375
vt 0.538128 0.986625
vt 0.461873 0.986625
vt 0.461872 0.539893
vt 0.538128 0.539893
vt 0.538127 0.710107
vt 0.461873 0.710107
vt 0.576086 0.221338
vt 0.538128 0.250000
vt 0.538127 0.210107
vt 0.461872 0.039893
vt 0.538128 0.039893
vt 0.461873 0.210107
vt 0.461872 0.263375
vt 0.538128 0.263375
vt 0.538128 0.486625
vt 0.461873 0.486625
vt 0.138375 0.710107
vt 0.138375 0.750000
vt 0.125000 0.710107
vt 0.588315 0.028662
vt 0.588315 0.221338
vt 0.138375 0.539893
vt 0.125000 0.539893
vt 0.138375 0.500000
vt 0.588315 0.259610
vt 0.588315 0.490390
vt 0.361625 0.710107
vt 0.375000 0.710107
vt 0.361625 0.750000
vt 0.576086 0.490390
vt 0.538128 0.500000
vt 0.361625 0.539893
vt 0.361625 0.500000
vt 0.375000 0.539893
vt 0.461872 0.000000
vt 0.538128 0.000000
vt 0.660891 0.642952
vt 0.660891 0.607048
vt 0.596042 0.528662
vt 0.596042 0.721338
vt 0.576086 0.759610
vt 0.538128 0.750000
vt 0.361625 0.750000
vt 0.576086 0.028662
vt 0.853637 0.686283
vt 0.853637 0.563717
vt 0.861625 0.539893
vt 0.861625 0.710107
vt 0.646363 0.563717
vt 0.638375 0.539893
vt 0.646363 0.686283
vt 0.638375 0.710107
vt 0.588315 0.759610
vt 0.588315 0.990390
vt 0.840371 0.646715
vt 0.659629 0.646715
vt 0.659518 0.647046
vt 0.659518 0.602954
vt 0.661017 0.642576
vt 0.661017 0.607424
vt 0.840482 0.647046
vt 0.840482 0.602954
vt 0.838983 0.642576
vt 0.838983 0.607424
vt 0.840371 0.603285
vt 0.659629 0.603285
vt 0.839109 0.642952
vt 0.839109 0.607048
s 0
f 13/1/1 14/2/1 4/3/1 2/4/1
f 18/5/2 19/6/2 15/7/2 12/8/2
f 24/9/3 9/10/3 10/11/3
f 3/12/4 5/13/4 10/11/4 7/14/4
f 8/15/5 9/16/5 20/17/5 17/18/5
f 1/19/6 2/20/6 3/21/6
f 22/22/7 24/23/7 10/11/7 5/13/7
f 6/24/8 7/25/8 8/26/8
f 24/27/9 28/28/9 20/17/9 9/16/9
f 11/29/10 12/30/10 13/31/10
f 28/32/11 19/33/11 20/17/11
f 16/34/12 17/35/12 18/36/12
f 6/24/13 1/19/13 3/21/13 7/25/13
f 2/37/14 4/38/14 5/13/14 3/12/14
f 25/39/4 27/40/4 156/40/4 155/39/4
f 9/16/15 8/15/15 7/14/15 10/11/15
f 16/34/16 6/24/16 8/26/16 17/35/16
f 28/41/17 26/42/17 15/7/17 19/6/17
f 19/6/18 18/5/18 17/18/18 20/17/18
f 11/29/19 16/34/19 18/5/19 12/8/19
f 26/43/20 14/2/20 15/44/20
f 14/2/21 13/1/21 12/8/21 15/7/21
f 1/19/22 11/29/22 13/45/22 2/20/22
f 4/38/23 22/46/23 5/13/23
f 6/24/24 16/34/24 11/29/24 1/19/24
f 137/47/25 138/48/25 24/49/25 22/50/25
f 138/48/26 139/51/26 28/52/26 24/49/26
f 139/51/27 140/53/27 26/42/27 28/41/27
f 140/53/28 137/47/28 22/50/28 26/54/28
f 26/55/29 22/56/29 4/3/29 14/2/29
f 41/1/1 42/2/1 32/3/1 30/4/1
f 46/5/2 47/6/2 43/7/2 40/8/2
f 52/9/3 37/10/3 38/11/3
f 31/12/4 33/13/4 38/11/4 35/14/4
f 36/15/5 37/16/5 48/17/5 45/18/5
f 29/19/6 30/20/6 31/21/6
f 50/22/7 52/23/7 38/11/7 33/13/7
f 34/24/8 35/25/8 36/26/8
f 52/27/9 56/28/9 48/17/9 37/16/9
f 39/29/10 40/30/10 41/31/10
f 56/32/11 47/33/11 48/17/11
f 44/34/12 45/35/12 46/36/12
f 34/24/13 29/19/13 31/21/13 35/25/13
f 30/37/14 32/38/14 33/13/14 31/12/14
f 49/57/5 53/58/5 151/58/5 149/57/5
f 37/16/15 36/15/15 35/14/15 38/11/15
f 44/34/16 34/24/16 36/26/16 45/35/16
f 56/41/17 54/42/17 43/7/17 47/6/17
f 47/6/18 46/5/18 45/18/18 48/17/18
f 39/29/19 44/34/19 46/5/19 40/8/19
f 54/43/30 42/2/30 43/44/30
f 42/2/21 41/1/21 40/8/21 43/7/21
f 29/19/22 39/29/22 41/45/22 30/20/22
f 32/38/31 50/46/31 33/13/31
f 34/24/24 44/34/24 39/29/24 29/19/24
f 133/47/25 134/48/25 52/49/25 50/50/25
f 134/48/26 135/51/26 56/52/26 52/49/26
f 135/51/27 136/53/27 54/42/27 56/41/27
f 136/53/28 133/47/28 50/50/28 54/54/28
f 54/55/29 50/56/29 32/3/29 42/2/29
f 69/1/1 70/2/1 60/3/1 58/4/1
f 74/5/2 75/6/2 71/7/2 68/8/2
f 80/9/32 65/10/32 66/11/32
f 59/12/33 61/13/33 66/11/33 63/14/33
f 64/15/5 65/16/5 76/17/5 73/18/5
f 57/19/34 58/20/34 59/21/34
f 78/22/7 80/23/7 66/11/7 61/13/7
f 62/24/35 63/25/35 64/26/35
f 80/27/9 84/28/9 76/17/9 65/16/9
f 67/29/36 68/30/36 69/31/36
f 84/32/37 75/33/37 76/17/37
f 72/34/38 73/35/38 74/36/38
f 62/24/39 57/19/39 59/21/39 63/25/39
f 58/37/40 60/38/40 61/13/40 59/12/40
f 81/59/4 83/60/4 144/60/4 143/59/4
f 65/16/15 64/15/15 63/14/15 66/11/15
f 72/34/16 62/24/16 64/26/16 73/35/16
f 84/41/17 82/42/17 71/7/17 75/6/17
f 75/6/18 74/5/18 73/18/18 76/17/18
f 67/29/19 72/34/19 74/5/19 68/8/19
f 82/43/30 70/2/30 71/44/30
f 70/2/21 69/1/21 68/8/21 71/7/21
f 57/19/22 67/29/22 69/45/22 58/20/22
f 60/38/31 78/46/31 61/13/31
f 62/24/24 72/34/24 67/29/24 57/19/24
f 113/47/25 114/48/25 80/49/25 78/50/25
f 114/48/26 115/51/26 84/52/26 80/49/26
f 115/51/27 116/53/27 82/42/27 84/41/27
f 116/53/28 113/47/28 78/50/28 82/54/28
f 82/55/29 78/56/29 60/3/29 70/2/29
f 97/1/1 98/2/1 88/3/1 86/4/1
f 102/5/2 103/6/2 99/7/2 96/8/2
f 108/9/32 93/10/32 94/11/32
f 87/12/4 89/13/4 94/11/4 91/14/4
f 92/15/5 93/16/5 104/17/5 101/18/5
f 85/19/6 86/20/6 87/21/6
f 106/22/7 108/23/7 94/11/7 89/13/7
f 90/24/8 91/25/8 92/26/8
f 108/27/9 112/28/9 104/17/9 93/16/9
f 95/29/10 96/30/10 97/31/10
f 112/32/37 103/33/37 104/17/37
f 100/34/12 101/35/12 102/36/12
f 90/24/13 85/19/13 87/21/13 91/25/13
f 86/37/14 88/38/14 89/13/14 87/12/14
f 109/61/4 111/62/4 148/62/4 147/61/4
f 93/16/15 92/15/15 91/14/15 94/11/15
f 100/34/16 90/24/16 92/26/16 101/35/16
f 112/41/17 110/42/17 99/7/17 103/6/17
f 103/6/18 102/5/18 101/18/18 104/17/18
f 95/29/19 100/34/19 102/5/19 96/8/19
f 110/43/30 98/2/30 99/44/30
f 98/2/21 97/1/21 96/8/21 99/7/21
f 85/19/22 95/29/22 97/45/22 86/20/22
f 88/38/31 106/46/31 89/13/31
f 90/24/24 100/34/24 95/29/24 85/19/24
f 129/47/25 130/48/25 108/49/25 106/50/25
f 130/48/26 131/51/26 112/52/26 108/49/26
f 131/51/27 132/53/27 110/42/27 112/41/27
f 132/53/28 129/47/28 106/50/28 110/54/28
f 110/55/29 106/56/29 88/3/29 98/2/29
f 117/47/41 118/48/41 114/48/41 113/47/41
f 118/48/41 119/51/41 115/51/41 114/48/41
f 119/51/41 120/53/41 116/53/41 115/51/41
f 120/53/41 117/47/41 113/47/41 116/53/41
f 121/47/41 122/48/41 118/48/41 117/47/41
f 122/48/41 123/51/41 119/51/41 118/48/41
f 123/51/41 124/53/41 120/53/41 119/51/41
f 124/53/41 121/47/41 117/47/41 120/53/41
f 125/47/41 126/48/41 122/48/41 121/47/41
f 126/48/41 127/51/41 123/51/41 122/48/41
f 127/51/41 128/53/41 124/53/41 123/51/41
f 128/53/41 125/47/41 121/47/41 124/53/41
f 77/63/41 79/64/41 126/48/41 125/47/41
f 79/64/41 83/60/41 127/51/41 126/48/41
f 83/60/41 81/59/41 128/53/41 127/51/41
f 81/59/41 77/63/41 125/47/41 128/53/41
f 105/65/41 107/66/41 130/48/41 129/47/41
f 107/66/41 111/62/41 131/51/41 130/48/41
f 111/62/41 109/61/41 132/53/41 131/51/41
f 109/61/41 105/65/41 129/47/41 132/53/41
f 49/57/41 51/67/41 134/48/41 133/47/41
f 51/67/41 55/68/41 135/51/41 134/48/41
f 55/68/41 53/58/41 136/53/41 135/51/41
f 53/58/41 49/57/41 133/47/41 136/53/41
f 21/69/41 23/70/41 138/48/41 137/47/41
f 23/70/41 27/40/41 139/51/41 138/48/41
f 27/40/41 25/39/41 140/53/41 139/51/41
f 25/39/41 21/69/41 137/47/41 140/53/41
f 144/60/41 142/64/41 141/63/41 143/59/41
f 79/64/2 77/63/2 141/63/2 142/64/2
f 77/63/5 81/59/5 143/59/5 141/63/5
f 83/60/1 79/64/1 142/64/1 144/60/1
f 148/62/41 146/66/41 145/65/41 147/61/41
f 107/66/2 105/65/2 145/65/2 146/66/2
f 105/65/5 109/61/5 147/61/5 145/65/5
f 111/62/1 107/66/1 146/66/1 148/62/1
f 152/68/41 150/67/41 149/57/41 151/58/41
f 55/68/1 51/67/1 150/67/1 152/68/1
f 53/58/4 55/68/4 152/68/4 151/58/4
f 51/67/2 49/57/2 149/57/2 150/67/2
f 156/40/41 154/70/41 153/69/41 155/39/41
f 23/70/2 21/69/2 153/69/2 154/70/2
f 21/69/5 25/39/5 155/39/5 153/69/5
f 27/40/1 23/70/1 154/70/1 156/40/1
